<?xml version="1.0" encoding="UTF-8" standalone="no"?>
<!DOCTYPE svg PUBLIC "-//W3C//DTD SVG 1.1//EN" "http://www.w3.org/Graphics/SVG/1.1/DTD/svg11.dtd">
<svg width="100%" height="100%" viewBox="0 0 222 49" version="1.1" xmlns="http://www.w3.org/2000/svg" xmlns:xlink="http://www.w3.org/1999/xlink" xml:space="preserve" xmlns:serif="http://www.serif.com/" style="fill-rule:evenodd;clip-rule:evenodd;stroke-linejoin:round;stroke-miterlimit:2;">
    <g transform="matrix(1,0,0,1,-38,-13.0857)">
        <g>
            <g>
                <g>
                    <path id="pywpa" d="M71.283,13.462L72.67,13.462L72.67,17.752C73.289,18.011 73.694,18.62 73.694,19.291C73.694,20.206 72.941,20.959 72.026,20.959C71.111,20.959 70.358,20.206 70.358,19.291C70.358,18.658 70.717,18.078 71.283,17.797L71.283,13.462ZM64.811,14.849L62.962,13L62.962,14.85L64.811,14.849ZM54.55,38.65L56.26,41.99L57.97,38.65L56.26,36.703L54.55,38.65ZM59.635,38.444L56.26,45.031L52.886,38.444L56.26,34.601L59.635,38.444ZM56.49,19.009C61.306,19.009 65.644,21.055 68.683,24.325L72.438,24.325L72.438,25.712L69.838,25.712C71.981,28.581 73.137,32.07 73.131,35.651L73.131,62L56.491,62C47.3,62 39.849,54.55 39.849,45.358L39.849,35.651C39.849,31.925 41.073,28.486 43.142,25.712L40.312,25.712L40.312,24.325L44.297,24.325C47.441,20.932 51.865,19.003 56.491,19.009L56.49,19.009ZM63.424,38.656C60.254,38.656 57.646,36.047 57.646,32.878C57.646,29.708 60.254,27.099 63.424,27.099C66.594,27.099 69.203,29.708 69.203,32.878C69.203,36.047 66.594,38.656 63.424,38.656ZM63.424,37.269C63.446,37.269 63.468,37.27 63.49,37.27C65.9,37.27 67.882,35.287 67.882,32.878C67.882,30.468 65.9,28.485 63.49,28.485C63.468,28.485 63.446,28.486 63.424,28.486C61.04,28.522 59.098,30.493 59.098,32.878C59.098,35.262 61.04,37.233 63.424,37.269ZM63.424,35.419C62.03,35.419 60.882,34.271 60.882,32.877C60.882,31.483 62.03,30.335 63.424,30.335C64.819,30.335 65.967,31.483 65.967,32.878C65.967,34.272 64.819,35.42 63.424,35.42L63.424,35.419ZM63.424,34.033C63.435,34.033 63.447,34.033 63.458,34.033C64.092,34.033 64.614,33.512 64.614,32.878C64.614,32.243 64.092,31.722 63.458,31.722C63.447,31.722 63.435,31.722 63.424,31.722C62.803,31.74 62.302,32.256 62.302,32.878C62.302,33.499 62.803,34.015 63.424,34.033ZM49.094,35.42C47.699,35.42 46.552,34.272 46.552,32.878C46.552,31.483 47.699,30.335 49.094,30.335C50.489,30.335 51.637,31.483 51.637,32.878C51.637,34.272 50.489,35.42 49.094,35.42ZM49.094,34.033C49.105,34.033 49.117,34.033 49.128,34.033C49.762,34.033 50.284,33.512 50.284,32.878C50.284,32.243 49.762,31.722 49.128,31.722C49.117,31.722 49.105,31.722 49.094,31.722C48.473,31.74 47.972,32.256 47.972,32.878C47.972,33.499 48.473,34.015 49.094,34.033ZM49.094,38.656C45.924,38.656 43.316,36.047 43.316,32.877C43.316,29.708 45.924,27.099 49.094,27.099C52.264,27.099 54.873,29.708 54.873,32.877C54.873,36.047 52.264,38.656 49.094,38.656ZM49.094,37.269C49.116,37.269 49.138,37.269 49.16,37.269C51.57,37.269 53.552,35.287 53.552,32.877C53.552,30.468 51.57,28.485 49.16,28.485C49.138,28.485 49.116,28.486 49.094,28.486C46.71,28.522 44.768,30.493 44.768,32.877C44.768,35.262 46.71,37.233 49.094,37.269ZM56.49,20.859C53.009,20.853 49.635,22.082 46.973,24.325L48.631,24.325C52.261,24.325 55.363,26.308 56.374,29.075C57.384,26.308 60.487,24.325 64.117,24.325L66.006,24.325C63.344,22.082 59.971,20.853 56.49,20.858L56.49,20.859ZM62.5,48.805C62.5,42.89 66.154,37.781 71.283,36.306L71.283,35.65C71.283,31.824 69.831,28.337 67.447,25.711L64.117,25.711C60.388,25.711 57.415,28.127 57.415,31.027L55.335,31.027C55.335,28.127 52.362,25.711 48.632,25.711L45.534,25.711C43.061,28.429 41.693,31.976 41.698,35.65L41.698,45.357C41.698,53.527 48.321,60.15 56.491,60.15L68.636,60.15C64.936,57.934 62.5,53.631 62.5,48.805ZM64.35,48.805C64.35,53.698 67.22,57.929 71.283,59.362L71.283,38.248C67.231,39.677 64.349,43.901 64.349,48.806L64.35,48.805ZM38,14.849L38,13L74.981,13L74.981,14.85" style="fill-rule:nonzero;"/>
                </g>
            </g>
            <g transform="matrix(1,0,0,1,0.0267574,-18.0141)">
                <g>
                    <g id="pywpb" transform="matrix(1,0,0,1,0.972198,5.06878)">
                        <path d="M245.645,38.016C245.645,35.592 246.797,33.503 248.843,32.33C250.268,31.525 251.7,31.341 254.499,31.341L259.487,31.341L259.487,51.36L256.723,51.36L256.723,33.924L254.11,33.924C253.764,33.924 253.61,33.924 253.419,33.928C251.835,33.95 250.865,34.152 250.017,34.758C249.044,35.429 248.409,36.647 248.409,37.835C248.409,39.395 249.233,40.69 250.65,41.341C251.14,41.561 251.6,41.689 252.1,41.756C252.54,41.816 252.892,41.826 253.783,41.823L254.09,41.823C254.486,41.823 254.813,42.149 254.813,42.546C254.813,42.692 254.769,42.835 254.686,42.955L248.936,51.359L245.479,51.359L250.928,44.129C247.942,43.676 245.645,41.104 245.645,38.016ZM235.277,31.341L238.551,31.341L238.551,51.36L235.786,51.36L235.786,35.508L225.568,51.358L222.97,51.358L222.97,31.342L225.734,31.342L225.734,46.227L235.277,31.341ZM208.663,33.924L208.663,51.36L205.9,51.36L205.9,31.34L216.473,31.34L216.473,33.923L208.663,33.924ZM198.13,48.776L198.13,51.359L186.804,51.359L186.804,31.34L198.13,31.34L198.13,33.923L189.569,33.923L189.569,39.98L197.845,39.98L197.845,42.563L189.569,42.563L189.569,48.775L198.13,48.776ZM168.773,33.924L168.773,31.341L180.317,31.341L180.317,33.924L175.928,33.924L175.928,51.36L173.161,51.36L173.161,33.924L168.773,33.924ZM156.169,35.054L153.074,42.336L159.221,42.336L156.169,35.054ZM149.185,51.359L146.189,51.359L154.83,31.341L157.514,31.341L166.1,51.36L163.106,51.36L160.33,44.926L151.961,44.926L149.185,51.359ZM135.572,41.049C137.359,41.049 138.31,40.898 139.216,40.334C140.136,39.764 140.702,38.657 140.702,37.499C140.702,36.018 139.932,34.868 138.572,34.304C137.929,34.029 137.225,33.922 136.248,33.911C135.963,33.908 135.679,33.91 135.394,33.916C135.065,33.921 134.923,33.923 134.742,33.923L132.7,33.923L132.7,41.049L135.572,41.049ZM132.7,51.36L129.935,51.36L129.935,31.34L135.397,31.34C138.159,31.38 139.367,31.566 140.751,32.442C142.494,33.532 143.467,35.402 143.467,37.522C143.467,39.467 142.643,41.181 141.115,42.299C139.739,43.313 138.24,43.626 135.884,43.626L132.7,43.626L132.7,51.36ZM116.293,33.925L111.904,33.925L111.904,31.342L123.448,31.342L123.448,33.925L119.06,33.925L119.06,51.36L116.293,51.36L116.293,33.925ZM104.709,36.925C103.416,34.95 100.909,33.718 98.369,33.718C94.293,33.718 90.775,37.268 90.775,41.286C90.775,45.496 94.328,49.01 98.499,49.01C100.913,49.01 103.345,47.712 104.797,45.684L104.923,45.508L107.963,45.508L107.643,46.125C105.904,49.465 102.252,51.697 98.499,51.697C92.612,51.697 88.01,47.152 88.01,41.287C88.01,35.618 92.648,31.031 98.343,31.031C100.432,31.031 102.443,31.604 104.096,32.706C105.622,33.68 107.086,35.198 107.586,36.547L107.796,37.117L104.834,37.117L104.709,36.925Z" style="fill-rule:nonzero;"/>
                    </g>
                    <g transform="matrix(1.52799,0,0,1.59701,55.2696,22.2566)">
                        <text x="91.073px" y="33.636px" style="font-family:'Montserrat-SemiBold', 'Montserrat';font-weight:600;font-size:12px;">ejudge</text>
                    </g>
                </g>
            </g>
        </g>
    </g>
    <g id="Layer1">
    </g>
</svg>
